<mxfile host="app.diagrams.net" agent="Mozilla/5.0 (Windows NT 10.0; Win64; x64) AppleWebKit/537.36 (KHTML, like Gecko) Chrome/138.0.0.0 Safari/537.36" version="28.0.7">
  <diagram name="第 1 页" id="M2j74F4IacHHQfKqTvY9">
    <mxGraphModel dx="1042" dy="535" grid="1" gridSize="10" guides="1" tooltips="1" connect="1" arrows="1" fold="1" page="1" pageScale="1" pageWidth="827" pageHeight="1169" math="0" shadow="0">
      <root>
        <mxCell id="0" />
        <mxCell id="1" parent="0" />
        <mxCell id="Ezzkr58mJztJ-Z06ZL8k-6" value="" style="edgeStyle=orthogonalEdgeStyle;rounded=0;orthogonalLoop=1;jettySize=auto;html=1;" edge="1" parent="1" source="Ezzkr58mJztJ-Z06ZL8k-2" target="Ezzkr58mJztJ-Z06ZL8k-5">
          <mxGeometry relative="1" as="geometry" />
        </mxCell>
        <mxCell id="Ezzkr58mJztJ-Z06ZL8k-2" value="Abaqus幾何簡化與修補&lt;div&gt;&lt;div style=&quot;text-align: left;&quot;&gt;&lt;span style=&quot;background-color: transparent; color: light-dark(rgb(0, 0, 0), rgb(255, 255, 255));&quot;&gt;-去除倒角,小邊...&lt;/span&gt;&lt;/div&gt;&lt;/div&gt;&lt;div style=&quot;text-align: left;&quot;&gt;&lt;span style=&quot;background-color: transparent; color: light-dark(rgb(0, 0, 0), rgb(255, 255, 255));&quot;&gt;-確保封閉實體&lt;/span&gt;&lt;/div&gt;" style="rounded=0;whiteSpace=wrap;html=1;" vertex="1" parent="1">
          <mxGeometry x="352.5" y="190" width="155" height="60" as="geometry" />
        </mxCell>
        <mxCell id="Ezzkr58mJztJ-Z06ZL8k-4" value="" style="edgeStyle=orthogonalEdgeStyle;rounded=0;orthogonalLoop=1;jettySize=auto;html=1;" edge="1" parent="1" source="Ezzkr58mJztJ-Z06ZL8k-3" target="Ezzkr58mJztJ-Z06ZL8k-2">
          <mxGeometry relative="1" as="geometry" />
        </mxCell>
        <mxCell id="Ezzkr58mJztJ-Z06ZL8k-3" value="CAD幾何繪製" style="strokeWidth=2;html=1;shape=mxgraph.flowchart.start_1;whiteSpace=wrap;" vertex="1" parent="1">
          <mxGeometry x="380" y="100" width="100" height="60" as="geometry" />
        </mxCell>
        <mxCell id="Ezzkr58mJztJ-Z06ZL8k-8" value="" style="edgeStyle=orthogonalEdgeStyle;rounded=0;orthogonalLoop=1;jettySize=auto;html=1;" edge="1" parent="1" source="Ezzkr58mJztJ-Z06ZL8k-5" target="Ezzkr58mJztJ-Z06ZL8k-7">
          <mxGeometry relative="1" as="geometry" />
        </mxCell>
        <mxCell id="Ezzkr58mJztJ-Z06ZL8k-5" value="Abaqus建立網格&lt;div&gt;&lt;div style=&quot;text-align: left;&quot;&gt;&lt;span style=&quot;background-color: transparent; color: light-dark(rgb(0, 0, 0), rgb(255, 255, 255));&quot;&gt;-用於模流分析 &amp;amp; 結構&lt;/span&gt;&lt;/div&gt;&lt;/div&gt;" style="rounded=0;whiteSpace=wrap;html=1;" vertex="1" parent="1">
          <mxGeometry x="352.5" y="290" width="155" height="60" as="geometry" />
        </mxCell>
        <mxCell id="Ezzkr58mJztJ-Z06ZL8k-7" value="Moldex3D 模流分析&lt;div&gt;-&lt;/div&gt;" style="rounded=0;whiteSpace=wrap;html=1;align=center;" vertex="1" parent="1">
          <mxGeometry x="352.5" y="390" width="155" height="60" as="geometry" />
        </mxCell>
      </root>
    </mxGraphModel>
  </diagram>
</mxfile>
